<?xml version="1.0" encoding="utf-8"?>
<!-- Generator: Adobe Illustrator 19.2.0, SVG Export Plug-In . SVG Version: 6.00 Build 0)  -->
<svg version="1.1" id="Layer_1" xmlns="http://www.w3.org/2000/svg" xmlns:xlink="http://www.w3.org/1999/xlink" x="0px" y="0px"
	 viewBox="0 0 798.5 798.1" style="enable-background:new 0 0 798.5 798.1;" xml:space="preserve">
<path d="M402.9,630.1c-40.8,0-80.4-8-117.7-23.8c-36-15.2-68.3-37-96.1-64.8c-27.8-27.8-49.5-60.1-64.8-96.1
	c-15.8-37.3-23.8-76.9-23.8-117.7c0-40.8,8-80.4,23.8-117.7c15.2-36,37-68.3,64.8-96.1c27.8-27.8,60.1-49.5,96.1-64.8
	c37.3-15.8,76.9-23.8,117.7-23.8c40.8,0,80.4,8,117.7,23.8c36,15.2,68.3,37,96.1,64.8c27.8,27.8,49.5,60.1,64.8,96.1
	c15.8,37.3,23.8,76.9,23.8,117.7c0,40.8-8,80.4-23.8,117.7c-15.2,36-37,68.3-64.8,96.1c-27.8,27.8-60.1,49.5-96.1,64.8
	C483.3,622.1,443.7,630.1,402.9,630.1z M402.9,56.9c-149.3,0-270.8,121.5-270.8,270.8c0,149.3,121.5,270.8,270.8,270.8
	c149.3,0,270.8-121.5,270.8-270.8C673.8,178.4,552.3,56.9,402.9,56.9z"/>
<path d="M495.3,455.9V243.7c13.2-4.5,22.7-17,22.7-31.7c0-18.5-15-33.5-33.5-33.5S451,193.5,451,212c0,14.1,8.7,26.2,21.1,31.1v98.6
	l-138.2-64.1v-77.8c13.2-4.5,22.7-17,22.7-31.7c0-18.5-15-33.5-33.5-33.5s-33.5,15-33.5,33.5c0,14.1,8.7,26.2,21.1,31.1v213.4
	c-12.4,4.9-21.1,17-21.1,31.1c0,18.5,15,33.5,33.5,33.5s33.5-15,33.5-33.5c0-14.7-9.5-27.2-22.7-31.7V305l138.2,64.1v87.4
	c-12.4,4.9-21.1,17-21.1,31.1c0,18.5,15,33.5,33.5,33.5s33.5-15,33.5-33.5C518,472.9,508.5,460.4,495.3,455.9z"/>
<path d="M113.3,695.9v77.2H96.8v-33.7H69.6v33.7H53.1v-77.2h16.5v29.7h27.2v-29.7H113.3z"/>
<path d="M142.6,773.1h-16.5v-77.2h16.5V773.1z"/>
<path d="M190.3,708.3c-3.9,0-7.2,0.4-9.9,1.1c-2.7,0.7-4.9,2-6.6,3.7c-1.7,1.8-2.9,4.1-3.6,7.1c-0.7,3-1.1,6.6-1.1,11.1v6.9
	c0,4.6,0.3,8.4,1,11.3c0.7,2.9,1.7,5.2,3.2,6.9c1.5,1.7,3.4,2.8,5.8,3.4c2.4,0.6,5.3,0.9,8.8,0.9c1,0,2,0,3.1-0.1
	c1-0.1,2.2-0.2,3.4-0.3v-20.8h-9.6l1.5-12.8h23.6v44c-3,1-6.8,1.8-11.2,2.5c-4.4,0.7-9,1-13.8,1c-5.9,0-10.9-0.7-15-2.1
	c-4.2-1.4-7.5-3.6-10.1-6.5c-2.6-2.9-4.5-6.6-5.7-11c-1.2-4.4-1.8-9.6-1.8-15.6V731c0-5.4,0.6-10.4,1.8-14.8c1.2-4.4,3.2-8.3,6-11.4
	c2.8-3.2,6.5-5.6,11.1-7.4c4.6-1.7,10.3-2.6,17.1-2.6c3.8,0,7.4,0.3,11.1,1c3.6,0.7,6.6,1.4,8.9,2.2l-2.7,12.5
	c-2.1-0.6-4.4-1.1-6.8-1.5C196.3,708.5,193.5,708.3,190.3,708.3z"/>
<path d="M284,695.9v77.2h-16.5v-33.7h-27.2v33.7h-16.5v-77.2h16.5v29.7h27.2v-29.7H284z"/>
<path d="M372,695.9l-1.8,13.4h-28.8v16.1h26.6l-1.8,13.4h-24.8v34.2h-16.5v-77.2H372z"/>
<path d="M398.9,773.1h-16.5v-77.2h16.5V773.1z"/>
<path d="M412.1,695.9h25.2c6.6,0,12,0.9,16.4,2.6c4.4,1.7,7.9,4.1,10.5,7.2c2.6,3.1,4.4,6.8,5.5,11.1c1,4.3,1.6,9,1.6,14v7.3
	c0,5.1-0.5,9.8-1.6,14.1c-1.1,4.3-2.9,8-5.5,11.1c-2.6,3.1-6.1,5.5-10.5,7.2c-4.4,1.7-9.8,2.6-16.4,2.6h-25.1V695.9z M428.5,759.6
	h7.2c3.1,0,5.8-0.4,8.2-1.1c2.3-0.7,4.3-2,5.9-3.7c1.6-1.7,2.7-4,3.5-6.9c0.8-2.9,1.1-6.4,1.1-10.7v-5.7c0-4.3-0.4-7.9-1.1-10.8
	c-0.8-2.9-1.9-5.1-3.5-6.8c-1.6-1.7-3.5-2.9-5.9-3.6c-2.3-0.7-5.1-1-8.2-1h-7.2V759.6z"/>
<path d="M529.9,695.9l-1.7,12.9h-29.7v16.9h28l-1.6,12.9h-26.4v21.6h31.5l-1.7,12.9H482v-77.2H529.9z"/>
<path d="M557.2,695.9v63.7h31.3l-1.8,13.4h-45.9v-77.2H557.2z"/>
<path d="M615.7,773.1h-16.5v-77.2h16.5V773.1z"/>
<path d="M687.1,695.9l-1.8,13.4h-20.9v63.7h-16.5v-63.7h-22.8l1.8-13.4H687.1z"/>
<path d="M726.2,726l16.1-30.1h17L734,739.4v33.7h-16.5v-33.7l-24.9-43.5h18.1L726.2,726z"/>
</svg>
